# 3ds Max Wavefront OBJ Exporter v0.97b - (c)2007 guruware
# File Created: 13.08.2015 14:45:12

mtllib grotte3collider.mtl

#
# object Plane001
#

v  -42.1528 25.0416 64.8597
v  -34.0540 25.1027 68.1988
v  -31.7204 25.1027 57.0666
v  -43.8580 25.0416 55.8126
v  -22.4607 25.7460 67.3545
v  -22.4607 25.7460 57.0666
v  -13.2010 25.7460 67.3545
v  -13.2010 25.7460 57.0666
v  -5.1531 25.7460 68.8055
v  -3.9413 25.7460 57.0666
v  5.3184 25.7460 67.3545
v  5.3184 25.7460 57.0666
v  12.7692 25.7460 66.3223
v  13.0732 25.7460 57.0521
v  14.5781 12.9632 75.2531
v  23.8378 12.9632 84.3152
v  23.8378 12.9632 57.0666
v  14.5781 12.9632 57.0666
v  33.0976 12.9632 87.5944
v  33.0976 12.9632 57.0666
v  41.2609 12.9632 76.8426
v  42.3573 12.9632 57.0666
v  -31.7204 19.2657 46.7788
v  -42.7366 19.2657 47.5732
v  -19.4823 25.7460 50.7952
v  -29.7651 25.7460 49.6388
v  -12.4722 25.7460 48.3076
v  -4.1550 25.7460 48.4540
v  4.4257 25.7460 46.8453
v  10.6865 25.7460 50.5238
v  23.8378 12.9632 46.7788
v  12.4554 12.9632 47.9280
v  33.0976 12.9632 46.7788
v  42.3573 12.9632 46.7788
v  -31.7204 19.2657 36.4909
v  -39.7019 19.2657 39.4297
v  -20.2961 17.1477 49.4449
v  -21.4584 17.1477 38.8708
v  -13.2010 14.6608 46.7788
v  -13.2010 14.6608 36.4909
v  -3.9413 12.9632 46.7788
v  -5.7052 12.9632 38.9681
v  5.3184 12.9632 46.7788
v  5.3184 12.9632 36.4909
v  16.5769 12.9632 37.8151
v  20.7949 12.9632 32.5016
v  34.9001 12.9632 32.8050
v  45.1369 12.9632 38.3760
v  32.2310 15.0894 25.8430
v  23.8378 15.0894 25.8430
v  -0.9166 0.0000 20.3497
v  0.3750 0.0000 13.3053
v  -3.2329 0.0000 13.9989
v  5.3184 0.0000 26.2030
v  6.5980 0.0000 14.0215
v  16.0271 0.0000 28.2135
v  14.5781 0.0000 15.9152
v  23.8378 0.0000 26.2030
v  26.8640 0.0000 15.3045
v  29.8143 19.4797 15.0773
v  26.6095 19.1646 15.6450
v  33.0976 0.0000 26.2030
v  42.3573 0.0000 26.2030
v  44.0418 0.0000 17.2597
v  30.6519 0.0000 14.6977
v  -42.4332 0.0000 17.0739
v  -33.5093 0.0000 20.6216
v  -31.7204 0.0000 5.6273
v  -39.4953 0.0000 6.0169
v  -22.4607 0.0000 15.9152
v  -20.7083 0.0000 7.0632
v  -13.2010 0.0000 15.9152
v  -16.2932 0.0000 5.9802
v  -10.4616 0.0000 7.1590
v  14.5781 0.0000 5.6273
v  5.9084 0.0000 7.3358
v  25.6502 0.0000 4.4299
v  29.5182 27.3070 5.8639
v  25.5238 28.1124 4.3698
v  42.3573 0.0000 5.6273
v  29.7414 0.0000 5.9468
v  -31.7204 0.0000 -4.6605
v  -40.9801 0.0000 -4.6605
v  -13.7197 0.0000 0.6024
v  -10.1644 0.0000 0.3265
v  -0.6203 0.0000 9.1484
v  5.3184 0.0000 -4.6605
v  -2.3662 0.0000 4.7374
v  -5.0575 0.0000 -2.0622
v  14.5781 0.0000 -4.6605
v  26.8640 0.0000 -4.3203
v  29.7318 31.5152 -4.2488
v  26.7938 31.5200 -4.2488
v  42.3573 0.0000 -4.6605
v  31.2586 0.0000 -4.3203
v  -31.7204 0.0000 -14.9484
v  -38.7603 0.0000 -14.9905
v  -24.2072 0.0000 -1.0511
v  -21.5144 0.0000 0.2425
v  -21.6595 0.0000 -2.0861
v  -12.4949 0.0000 -4.6863
v  28.7931 33.4820 -13.1234
v  25.1297 33.4820 -12.6435
v  40.5767 0.0000 -11.4703
v  39.5174 0.0000 -15.5217
v  30.9552 0.0000 -13.0706
v  -31.7204 0.0000 -25.2362
v  -40.2354 0.0000 -28.2663
v  -22.4607 0.0000 -14.9484
v  -22.4607 0.0000 -25.2362
v  -13.2010 0.0000 -14.9484
v  -13.2010 0.0000 -25.2362
v  -7.9495 0.0000 -17.3135
v  -3.9413 0.0000 -25.2362
v  29.4241 28.6184 -25.2565
v  26.8479 28.3734 -25.4363
v  42.3573 0.0000 -25.2362
v  30.0448 0.0000 -25.1593
v  -34.7617 0.0000 -33.6635
v  -39.3985 0.0000 -37.2987
v  -28.2782 0.2841 -34.3148
v  -13.2010 0.0000 -35.5241
v  -3.9413 0.0000 -35.5241
v  0.3729 0.0000 -23.6709
v  3.4281 0.0000 -26.6908
v  5.3184 0.0000 -35.5241
v  11.4594 0.0000 -22.4376
v  9.6498 0.0000 -30.2034
v  30.9345 23.1148 -36.1373
v  24.7553 23.1068 -36.1047
v  40.4417 0.0000 -35.4969
v  30.9345 0.0000 -36.1373
v  -40.7446 4.2907 -37.2987
v  -34.7617 3.4280 -33.6635
v  -35.0151 4.4352 -44.8680
v  -42.4563 5.1231 -45.8120
v  -28.5972 0.2841 -38.6044
v  -13.2010 0.0000 -45.8120
v  -3.9413 0.0000 -45.8120
v  4.2299 0.0000 -47.2934
v  11.4735 0.0000 -45.4840
v  19.2540 0.0000 -31.8776
v  22.2202 0.0000 -43.2206
v  33.6298 19.2657 -42.9327
v  20.6724 19.2657 -41.7194
v  42.3573 0.0000 -45.8120
v  31.2941 0.0000 -43.2119
v  -31.6968 9.5110 -52.5664
v  -41.2946 9.5110 -53.5854
v  -35.6956 0.0000 -44.8680
v  -24.9076 0.0000 -55.4740
v  -31.6968 0.0000 -52.5664
v  -16.4178 0.0000 -56.7113
v  -17.7203 0.0000 -56.5214
v  -7.7169 0.0000 -55.1441
v  -9.2189 0.0000 -55.4146
v  -0.2970 0.0000 -52.9399
v  4.4281 19.2657 -48.5955
v  11.4735 19.2657 -45.4840
v  14.5781 19.2657 -56.0998
v  -0.2970 19.2657 -52.9399
v  23.8378 19.2657 -56.0998
v  33.0976 19.2657 -56.0998
v  42.3573 19.2657 -45.8120
v  42.3573 19.2657 -56.0998
v  -33.2810 11.1194 -67.1709
v  -40.0859 8.8454 -65.4386
v  -24.9072 12.8779 -57.0032
v  -20.8987 12.8779 -65.3704
v  -15.9590 15.1480 -57.6384
v  -14.6063 15.1480 -64.3655
v  -7.6531 17.3424 -55.7553
v  -5.3466 17.3424 -64.3655
v  3.2295 19.2657 -62.6680
v  14.5781 19.2657 -66.3877
v  22.5884 19.2657 -62.5996
v  33.0976 19.2657 -66.3877
v  38.6916 19.2657 -64.4676
v  25.9357 0.0000 -34.3144
v  19.8624 0.0000 -5.9378
v  -3.9958 0.0000 8.4661
v  -13.3354 0.0000 -10.9194
v  -8.7058 0.0000 -5.4491
v  -16.6674 0.0000 -7.0675
v  -26.2969 0.0000 -2.0550
v  -26.6908 0.0000 5.3704
v  -2.4678 0.0000 28.8090
v  19.0352 0.0000 -22.9248
v  22.6675 0.0000 -23.6620
v  20.1549 0.0000 -21.0319
v  19.5662 0.0000 -17.9328
v  10.4762 0.0000 -19.3554
v  1.1433 0.0000 -11.4144
v  4.1092 0.0000 -14.9484
v  -6.3757 0.0000 -14.9175
v  11.2817 0.0000 -10.8227
v  10.2919 0.0000 -7.1849
v  15.9930 0.0000 -8.6126
v  27.7590 0.0000 -15.8976
v  27.0796 0.0000 -19.8058
v  28.6092 0.0000 -24.8679
v  25.6393 0.0000 -27.8789
v  1.0603 0.0000 -21.4794
v  1.9297 0.0000 -23.5221
v  4.1092 0.0000 -18.6468
v  -5.1020 -1.8101 -95.3684
v  -12.3009 -1.8101 -96.6650
v  -13.6034 -1.8101 -96.4752
v  73.0992 -0.6254 2.9758
v  73.0992 -0.6254 -7.3120
v  71.3186 -0.6254 -14.1218
# 211 vertices

vn -0.0059 1.0000 -0.0000
vn -0.0324 0.9995 -0.0052
vn -0.0181 0.9899 -0.1409
vn -0.0018 0.9356 -0.3531
vn -0.0282 0.9996 -0.0000
vn -0.0384 0.9991 -0.0152
vn 0.0000 1.0000 -0.0000
vn 0.0771 0.9767 -0.2005
vn -0.0253 0.9037 -0.4274
vn -0.0141 0.9999 0.0069
vn -0.0094 0.9947 0.1019
vn 0.1058 0.9944 -0.0000
vn 0.2496 0.9681 -0.0222
vn 0.2340 0.9719 -0.0257
vn 0.2727 0.9620 -0.0101
vn 0.2629 0.9648 -0.0103
vn 0.0751 0.9970 -0.0207
vn 0.1168 0.9930 -0.0159
vn -0.0009 0.9931 0.1173
vn -0.0018 0.9945 0.1047
vn -0.0028 0.9204 0.3909
vn -0.0020 0.9193 0.3935
vn 0.0120 0.8073 0.5900
vn -0.0101 0.8293 0.5587
vn -0.0180 0.7910 0.6116
vn -0.0076 0.8325 0.5539
vn 0.0077 0.9349 0.3549
vn 0.0053 0.9375 0.3480
vn -0.0150 0.9940 -0.1088
vn -0.0093 0.9970 -0.0772
vn -0.0057 0.9999 0.0094
vn 0.0048 0.9999 0.0108
vn -0.0537 0.8714 -0.4877
vn -0.0468 0.8714 -0.4884
vn -0.0138 0.9999 0.0061
vn 0.1106 0.9939 0.0032
vn 0.0071 1.0000 0.0024
vn -0.0068 0.8367 -0.5476
vn -0.0222 0.8224 -0.5685
vn 0.0863 0.9910 0.1026
vn 0.3271 0.9423 0.0720
vn 0.1443 0.9317 0.3332
vn 0.0235 0.9207 0.3896
vn 0.1743 0.9847 0.0001
vn 0.0077 1.0000 -0.0015
vn -0.0076 0.9853 -0.1709
vn -0.0135 0.9843 -0.1758
vn -0.1013 0.9595 0.2629
vn -0.0881 0.9407 0.3275
vn -0.0169 0.9996 -0.0209
vn -0.0062 0.9998 -0.0198
vn 0.0051 1.0000 -0.0077
vn -0.0025 0.9998 -0.0212
vn -0.1082 0.9930 -0.0478
vn -0.1678 0.9825 0.0804
vn -0.3350 0.9363 -0.1057
vn -0.4830 0.8328 -0.2704
vn -0.3023 0.9471 -0.1076
vn -0.2425 0.9681 -0.0632
vn -0.2518 0.9642 -0.0829
vn -0.2286 0.9702 -0.0807
vn -0.2202 0.9730 -0.0689
vn -0.0803 0.9963 -0.0312
vn 0.0080 0.9985 -0.0541
vn -0.0067 0.9984 -0.0559
vn 0.0203 0.9998 -0.0000
vn 0.0199 0.9998 -0.0063
# 67 vertex normals

vt 0.0909 0.0667 0.0000
vt 0.1818 0.0667 0.0000
vt 0.1818 0.1333 0.0000
vt 0.0909 0.1333 0.0000
vt 0.2727 0.0667 0.0000
vt 0.2727 0.1333 0.0000
vt 0.3636 0.0667 0.0000
vt 0.3636 0.1333 0.0000
vt 0.4545 0.0667 0.0000
vt 0.4545 0.1333 0.0000
vt 0.5455 0.0667 0.0000
vt 0.5455 0.1333 0.0000
vt 0.6364 0.0667 0.0000
vt 0.6364 0.1333 0.0000
vt 0.7273 0.0667 0.0000
vt 0.7273 0.1333 0.0000
vt 0.8182 0.0667 0.0000
vt 0.8182 0.1333 0.0000
vt 0.9091 0.0667 0.0000
vt 0.9091 0.1333 0.0000
vt 0.1818 0.2000 0.0000
vt 0.0909 0.2000 0.0000
vt 0.2727 0.2000 0.0000
vt 0.3636 0.2000 0.0000
vt 0.4545 0.2000 0.0000
vt 0.5455 0.2000 0.0000
vt 0.6364 0.2000 0.0000
vt 0.7273 0.2000 0.0000
vt 0.8182 0.2000 0.0000
vt 0.9091 0.2000 0.0000
vt 0.1818 0.2667 0.0000
vt 0.0909 0.2667 0.0000
vt 0.2727 0.2667 0.0000
vt 0.3636 0.2667 0.0000
vt 0.4545 0.2667 0.0000
vt 0.5455 0.2667 0.0000
vt 0.6364 0.2667 0.0000
vt 0.7273 0.2667 0.0000
vt 0.8182 0.2667 0.0000
vt 0.9091 0.2667 0.0000
vt 0.8182 0.3333 0.0000
vt 0.7273 0.3333 0.0000
vt 0.4545 0.3697 0.0000
vt 0.4545 0.4000 0.0000
vt 0.4304 0.4000 0.0000
vt 0.5455 0.3333 0.0000
vt 0.5455 0.4000 0.0000
vt 0.6364 0.3333 0.0000
vt 0.6364 0.4000 0.0000
vt 0.7273 0.4000 0.0000
vt 0.8182 0.4000 0.0000
vt 0.9091 0.3333 0.0000
vt 0.9091 0.4000 0.0000
vt 0.0909 0.4000 0.0000
vt 0.1818 0.4000 0.0000
vt 0.1818 0.4667 0.0000
vt 0.0909 0.4667 0.0000
vt 0.2727 0.4000 0.0000
vt 0.2727 0.4667 0.0000
vt 0.3636 0.4000 0.0000
vt 0.3636 0.4667 0.0000
vt 0.3975 0.4667 0.0000
vt 0.6364 0.4667 0.0000
vt 0.5455 0.4667 0.0000
vt 0.7273 0.4667 0.0000
vt 0.8182 0.4667 0.0000
vt 0.9091 0.4667 0.0000
vt 0.1818 0.5333 0.0000
vt 0.0909 0.5333 0.0000
vt 0.3636 0.5333 0.0000
vt 0.3765 0.5333 0.0000
vt 0.4545 0.4667 0.0000
vt 0.5455 0.5333 0.0000
vt 0.4545 0.4929 0.0000
vt 0.4545 0.5333 0.0000
vt 0.6364 0.5333 0.0000
vt 0.7273 0.5333 0.0000
vt 0.8182 0.5333 0.0000
vt 0.9091 0.5333 0.0000
vt 0.1818 0.6000 0.0000
vt 0.0909 0.6000 0.0000
vt 0.2487 0.5333 0.0000
vt 0.2727 0.5333 0.0000
vt 0.2727 0.5436 0.0000
vt 0.3636 0.5455 0.0000
vt 0.8182 0.6000 0.0000
vt 0.7273 0.6000 0.0000
vt 0.9091 0.5751 0.0000
vt 0.9091 0.6000 0.0000
vt 0.1818 0.6667 0.0000
vt 0.0909 0.6667 0.0000
vt 0.2727 0.6000 0.0000
vt 0.2727 0.6667 0.0000
vt 0.3636 0.6000 0.0000
vt 0.3636 0.6667 0.0000
vt 0.4545 0.6000 0.0000
vt 0.4545 0.6667 0.0000
vt 0.8182 0.6667 0.0000
vt 0.7273 0.6667 0.0000
vt 0.9091 0.6667 0.0000
vt 0.1818 0.7333 0.0000
vt 0.0909 0.7333 0.0000
vt 0.2727 0.7333 0.0000
vt 0.3636 0.7333 0.0000
vt 0.4545 0.7333 0.0000
vt 0.4883 0.6667 0.0000
vt 0.5455 0.6667 0.0000
vt 0.5455 0.7333 0.0000
vt 0.6364 0.6667 0.0000
vt 0.6364 0.7333 0.0000
vt 0.8182 0.7333 0.0000
vt 0.7273 0.7333 0.0000
vt 0.9091 0.7333 0.0000
vt 0.1818 0.8000 0.0000
vt 0.0909 0.8000 0.0000
vt 0.2727 0.8000 0.0000
vt 0.3636 0.8000 0.0000
vt 0.4545 0.8000 0.0000
vt 0.5455 0.8000 0.0000
vt 0.6364 0.8000 0.0000
vt 0.7273 0.8000 0.0000
vt 0.8182 0.8000 0.0000
vt 0.9091 0.8000 0.0000
vt 0.1818 0.8667 0.0000
vt 0.0909 0.8667 0.0000
vt 0.2727 0.8667 0.0000
vt 0.3636 0.8667 0.0000
vt 0.3497 0.8667 0.0000
vt 0.4545 0.8667 0.0000
vt 0.4389 0.8667 0.0000
vt 0.5455 0.8667 0.0000
vt 0.6364 0.8667 0.0000
vt 0.7273 0.8667 0.0000
vt 0.8182 0.8667 0.0000
vt 0.9091 0.8667 0.0000
vt 0.1818 0.9333 0.0000
vt 0.0909 0.9333 0.0000
vt 0.2727 0.9333 0.0000
vt 0.3636 0.9333 0.0000
vt 0.4545 0.9333 0.0000
vt 0.5455 0.9333 0.0000
vt 0.6364 0.9333 0.0000
vt 0.7273 0.9333 0.0000
vt 0.8182 0.9333 0.0000
vt 0.9091 0.9333 0.0000
vt 0.7793 0.7333 0.0000
vt 0.4350 0.4667 0.0000
vt 0.3636 0.5827 0.0000
vt 0.4545 0.5589 0.0000
vt 0.2727 0.5614 0.0000
vt 0.2301 0.5333 0.0000
vt 0.2229 0.4973 0.0000
vt 0.4545 0.3333 0.0000
vt 0.7573 0.6667 0.0000
vt 0.7273 0.6542 0.0000
vt 0.6918 0.6199 0.0000
vt 0.6364 0.6000 0.0000
vt 0.5307 0.5640 0.0000
vt 0.5455 0.6000 0.0000
vt 0.4691 0.5788 0.0000
vt 0.6364 0.5632 0.0000
vt 0.5943 0.5497 0.0000
vt 0.6787 0.6000 0.0000
vt 0.7273 0.6247 0.0000
vt 0.7730 0.6388 0.0000
vt 0.8063 0.6667 0.0000
vt 0.7800 0.6908 0.0000
vt 0.4679 0.6505 0.0000
vt 0.5056 0.6596 0.0000
vt 0.5455 0.6240 0.0000
# 170 texture coords

g Plane001
usemtl Material__26
s 1
f 1/1/1 2/2/2 3/3/3 4/4/4 
f 2/2/2 5/5/5 6/6/6 3/3/3 
f 5/5/5 7/7/7 8/8/7 6/6/6 
f 7/7/7 9/9/7 10/10/7 8/8/7 
f 9/9/7 11/11/7 12/12/7 10/10/7 
f 11/11/7 13/13/7 14/14/7 12/12/7 
f 15/13/7 16/15/7 17/16/7 18/14/7 
f 16/15/7 19/17/7 20/18/7 17/16/7 
f 19/17/7 21/19/7 22/20/7 20/18/7 
f 4/4/4 3/3/3 23/21/8 24/22/9 
f 3/3/3 6/6/6 25/23/10 26/21/11 
f 6/6/6 8/8/7 27/24/7 25/23/10 
f 8/8/7 10/10/7 28/25/7 27/24/7 
f 10/10/7 12/12/7 29/26/7 28/25/7 
f 12/12/7 14/14/7 30/27/7 29/26/7 
f 18/14/7 17/16/7 31/28/7 32/27/7 
f 17/16/7 20/18/7 33/29/7 31/28/7 
f 20/18/7 22/20/7 34/30/7 33/29/7 
f 24/22/9 23/21/8 35/31/12 36/32/7 
f 23/21/8 37/23/13 38/33/14 35/31/12 
f 37/23/13 39/24/15 40/34/16 38/33/14 
f 39/24/15 41/25/17 42/35/18 40/34/16 
f 41/25/17 43/26/7 44/36/7 42/35/18 
f 43/26/7 32/27/7 45/37/7 44/36/7 
f 32/27/7 31/28/7 46/38/19 45/37/7 
f 31/28/7 33/29/7 47/39/20 46/38/19 
f 33/29/7 34/30/7 48/40/7 47/39/20 
f 46/38/19 47/39/20 49/41/21 50/42/22 
f 51/43/7 52/44/7 53/45/7 
f 51/43/7 54/46/7 55/47/7 52/44/7 
f 54/46/7 56/48/7 57/49/7 55/47/7 
f 56/48/7 58/42/7 59/50/7 57/49/7 
f 50/42/22 49/41/21 60/51/23 61/50/24 
f 62/41/7 63/52/7 64/53/7 65/51/7 
f 66/54/7 67/55/7 68/56/7 69/57/7 
f 67/55/7 70/58/7 71/59/7 68/56/7 
f 70/58/7 72/60/7 73/61/7 71/59/7 
f 73/61/7 72/60/7 74/62/7 
f 55/47/7 57/49/7 75/63/7 76/64/7 
f 57/49/7 59/50/7 77/65/7 75/63/7 
f 61/50/24 60/51/23 78/66/25 79/65/26 
f 65/51/7 64/53/7 80/67/7 81/66/7 
f 69/57/7 68/56/7 82/68/7 83/69/7 
f 84/70/7 73/61/7 74/62/7 85/71/7 
f 86/72/7 76/64/7 87/73/7 88/74/7 
f 89/75/7 88/74/7 87/73/7 
f 76/64/7 75/63/7 90/76/7 87/73/7 
f 75/63/7 77/65/7 91/77/7 90/76/7 
f 79/65/26 78/66/25 92/78/27 93/77/28 
f 81/66/7 80/67/7 94/79/7 95/78/7 
f 83/69/7 82/68/7 96/80/7 97/81/7 
f 98/82/7 99/83/7 100/84/7 
f 99/83/7 84/70/7 101/85/7 100/84/7 
f 101/85/7 84/70/7 85/71/7 
f 93/77/28 92/78/27 102/86/29 103/87/30 
f 95/78/7 94/79/7 104/88/7 105/89/7 
f 106/86/7 95/78/7 105/89/7 
f 97/81/7 96/80/7 107/90/31 108/91/7 
f 96/80/7 109/92/7 110/93/32 107/90/31 
f 109/92/7 111/94/7 112/95/7 110/93/32 
f 111/94/7 113/96/7 114/97/7 112/95/7 
f 103/87/30 102/86/29 115/98/33 116/99/34 
f 106/86/7 105/89/7 117/100/7 118/98/7 
f 108/91/7 107/90/31 119/101/35 120/102/7 
f 107/90/31 110/93/32 121/103/36 119/101/35 
f 110/93/32 112/95/7 122/104/37 121/103/36 
f 112/95/7 114/97/7 123/105/7 122/104/37 
f 124/106/7 125/107/7 126/108/7 114/97/7 
f 123/105/7 114/97/7 126/108/7 
f 125/107/7 127/109/7 128/110/7 126/108/7 
f 116/99/34 115/98/33 129/111/38 130/112/39 
f 118/98/7 117/100/7 131/113/7 132/111/7 
f 133/102/40 134/101/41 135/114/42 136/115/43 
f 134/101/41 121/103/36 137/116/44 135/114/42 
f 121/103/36 122/104/37 138/117/45 137/116/44 
f 122/104/37 123/105/7 139/118/7 138/117/45 
f 123/105/7 126/108/7 140/119/7 139/118/7 
f 126/108/7 128/110/7 141/120/7 140/119/7 
f 128/110/7 142/112/7 143/121/7 141/120/7 
f 130/112/39 129/111/38 144/122/46 145/121/47 
f 132/111/7 131/113/7 146/123/7 147/122/7 
f 136/115/43 135/114/42 148/124/48 149/125/49 
f 150/114/50 137/116/44 151/126/51 152/124/7 
f 137/116/44 138/117/45 153/127/52 154/128/53 
f 151/126/51 137/116/44 154/128/53 
f 138/117/45 139/118/7 155/129/7 156/130/7 
f 153/127/52 138/117/45 156/130/7 
f 139/118/7 140/119/7 157/131/7 155/129/7 
f 158/119/7 159/120/7 160/132/7 161/131/54 
f 159/120/7 145/121/47 162/133/7 160/132/7 
f 145/121/47 144/122/46 163/134/7 162/133/7 
f 144/122/46 164/123/7 165/135/7 163/134/7 
f 149/125/49 148/124/48 166/136/55 167/137/56 
f 148/124/48 168/126/57 169/138/58 166/136/55 
f 168/126/57 170/127/59 171/139/60 169/138/58 
f 170/127/59 172/129/61 173/140/62 171/139/60 
f 172/129/61 161/131/54 174/141/63 173/140/62 
f 161/131/54 160/132/7 175/142/7 174/141/63 
f 160/132/7 162/133/7 176/143/7 175/142/7 
f 162/133/7 163/134/7 177/144/7 176/143/7 
f 163/134/7 165/135/7 178/145/7 177/144/7 
s off
f 147/122/7 143/121/7 142/112/7 179/146/7 
f 147/122/7 179/146/7 132/111/7 
f 91/77/7 95/78/7 106/86/7 180/87/7 
f 91/77/7 77/65/7 81/66/7 95/78/7 
f 59/50/7 65/51/7 81/66/7 77/65/7 
f 59/50/7 58/42/7 62/41/7 65/51/7 
s 1
f 53/45/7 52/44/7 86/72/7 181/147/7 
f 181/147/7 86/72/7 88/74/7 
f 113/96/7 111/94/7 182/148/7 183/149/7 
f 182/148/7 111/94/7 109/92/7 184/150/7 
f 96/80/7 82/68/7 185/151/7 109/92/7 
f 184/150/7 109/92/7 185/151/7 
f 99/83/7 98/82/7 186/152/7 71/59/7 
f 68/56/7 71/59/7 186/152/7 82/68/7 
f 185/151/7 82/68/7 186/152/7 
f 51/43/7 187/153/7 54/46/7 
s off
f 142/112/7 188/99/7 189/154/7 179/146/7 
f 189/154/7 188/99/7 190/155/7 
s 1
f 190/155/7 188/99/7 127/109/7 191/156/7 
f 127/109/7 192/157/7 191/156/7 
f 193/158/7 194/159/7 113/96/7 195/160/7 
f 195/160/7 113/96/7 183/149/7 89/75/7 
f 195/160/7 89/75/7 87/73/7 
f 90/76/7 196/161/7 197/162/7 87/73/7 
f 90/76/7 91/77/7 180/87/7 198/163/7 
f 196/161/7 90/76/7 198/163/7 
s off
f 199/164/7 180/87/7 106/86/7 200/165/7 
f 200/165/7 106/86/7 118/98/7 201/166/7 
f 201/166/7 118/98/7 132/111/7 202/167/7 
f 132/111/7 179/146/7 202/167/7 
f 192/157/7 127/109/7 125/107/7 
s 1
f 203/168/7 124/106/7 114/97/7 113/96/7 
f 203/168/7 113/96/7 194/159/7 204/169/7 
f 204/169/7 194/159/7 205/170/7 
s off
f 153/127/64 156/130/64 206/130/64 207/127/64 
f 154/128/65 153/127/65 207/127/65 208/128/65 
f 94/79/66 80/67/66 209/67/66 210/79/66 
f 104/88/67 94/79/67 210/79/67 211/88/67 
# 118 polygons - 21 triangles

