# 3ds Max Wavefront OBJ Exporter v0.97b - (c)2007 guruware
# File Created: 12.08.2015 19:52:05

mtllib grotte1collider.mtl

#
# object Plane001
#

v  3.5951 0.0000 72.5836
v  3.5951 0.0000 59.0338
v  -4.1607 0.0000 59.4511
v  -4.3294 0.0000 72.5836
v  14.0676 0.0000 72.5836
v  11.3369 0.0000 61.0149
v  3.5951 0.0000 51.1452
v  -5.5956 0.0000 53.0591
v  11.5196 0.0000 61.0562
v  3.5951 0.0000 43.2567
v  -8.4109 0.0000 45.2365
v  11.5196 0.0000 43.2567
v  19.4441 11.7559 62.8779
v  19.4441 11.7559 43.2567
v  13.9774 11.7559 46.1170
v  13.0813 11.7559 61.0220
v  27.3687 11.7559 63.8939
v  28.3500 11.7559 42.7776
v  35.2932 11.1459 65.5531
v  32.9612 10.3076 42.2882
v  43.8989 10.5358 63.0185
v  47.5732 10.5358 44.5884
v  -20.1785 0.0000 43.2567
v  -12.2540 0.0000 43.2567
v  -12.9191 0.0000 36.5988
v  -18.2666 0.0000 33.3106
v  -4.9072 0.0000 35.5928
v  3.5951 0.0000 35.3682
v  13.7778 0.4483 37.7511
v  20.1081 11.7559 39.0415
v  15.7400 11.7559 40.9205
v  25.8515 11.7559 37.5289
v  34.0191 9.4273 38.6735
v  33.7490 10.0213 41.2698
v  43.9083 8.7247 38.9070
v  43.9619 6.9716 33.1724
v  3.5951 0.0000 27.4797
v  -1.6169 0.0000 25.0818
v  11.5196 0.4483 27.4797
v  20.5032 2.3038 34.9103
v  19.4441 2.3038 27.4797
v  27.3687 4.2894 35.3682
v  28.5030 4.2894 27.7340
v  35.2932 5.8670 27.4797
v  44.3789 5.3562 27.4797
v  -28.1030 0.0000 23.8062
v  -28.1030 0.0000 15.9177
v  -36.0275 0.0000 15.9177
v  -36.0275 0.0000 27.4797
v  -24.9167 0.0000 18.9079
v  -24.7170 0.0000 25.7760
v  -20.1785 0.0161 18.7598
v  3.5951 0.0000 19.5911
v  -4.6138 0.0000 15.3276
v  11.5196 0.0000 19.5911
v  19.4441 0.0000 27.4797
v  19.4441 0.0000 19.5911
v  22.6406 0.0000 27.4797
v  27.3687 0.0000 19.5911
v  43.2177 0.0000 21.4707
v  43.2177 0.0000 19.5911
v  35.2932 0.0000 27.4797
v  43.2177 0.0000 27.4797
v  35.2932 0.0000 19.5911
v  -28.1030 0.0000 8.0292
v  -36.0275 0.0000 11.7026
v  -24.8764 -0.1449 13.4389
v  -18.6278 0.0000 7.2668
v  -20.1785 -0.0007 13.4507
v  -17.4158 0.2451 14.4113
v  -12.2665 -0.1568 15.9177
v  -16.8849 0.2490 15.9177
v  -12.2540 0.0000 11.7026
v  3.5951 0.0000 11.7026
v  -2.3410 0.0000 12.2449
v  11.5196 0.0000 11.7026
v  19.4441 0.0000 11.7026
v  27.3687 0.0000 11.7026
v  32.6279 -7.2736 18.5558
v  35.3089 -6.0735 19.1933
v  32.5109 -8.1389 16.4705
v  32.5381 -7.2736 18.2832
v  35.4320 -6.0390 13.1201
v  33.1335 -7.9643 14.1186
v  32.6373 -5.7212 13.9392
v  38.8902 0.0000 18.9958
v  38.9377 0.0000 13.1046
v  -26.0630 0.0000 5.3053
v  -36.0275 0.0000 3.8141
v  -22.4562 0.0000 4.3794
v  3.5951 0.0000 3.8141
v  -7.5725 0.0000 6.3676
v  9.2951 0.0000 1.2655
v  17.0760 0.0000 2.5475
v  24.8026 0.0000 2.8760
v  33.9135 0.0000 9.3915
v  43.2177 0.0000 11.7026
v  42.7675 0.0000 3.9779
v  31.8983 0.0000 1.7407
v  -28.1030 0.0000 -4.0744
v  -36.0275 0.0000 -4.0744
v  -20.1785 0.0000 -4.0744
v  -12.2500 0.0000 6.3657
v  -12.5744 0.0000 -5.0895
v  -0.9221 -0.9209 -4.0744
v  5.5423 0.0000 -6.8622
v  15.3047 0.0000 0.8753
v  -28.1030 0.0000 -11.9629
v  -34.2522 0.0000 -11.9629
v  -23.8689 0.0000 -11.7519
v  19.5988 0.0000 -1.8747
v  19.4441 0.0000 -11.9629
v  9.1844 0.0000 -12.4013
v  30.3021 0.0000 -3.5261
v  27.3687 0.0000 -11.9629
v  34.5111 0.0000 -5.5168
v  38.9616 0.0000 -13.2675
v  -28.1030 0.0000 -19.8515
v  -36.0275 0.0000 -19.8515
v  -21.2663 0.0000 -16.7569
v  19.4441 0.0000 -19.8515
v  14.0466 0.0000 -18.7984
v  23.5980 0.0000 -21.9428
v  40.4985 0.0000 -19.8515
v  -26.7493 0.0000 -28.7132
v  -32.1378 0.0000 -27.3905
v  -22.1904 0.0000 -25.9695
v  -14.2909 0.0000 -18.1440
v  -12.2307 0.0000 -26.6375
v  -4.3294 0.0000 -19.8515
v  -4.3294 0.0000 -27.7400
v  3.5951 0.0000 -19.8515
v  3.5951 0.0000 -27.7400
v  37.7317 0.0000 -28.8087
v  25.5666 0.0000 -27.7400
v  38.4798 0.0000 -37.6481
v  24.7294 0.0000 -32.6236
v  -21.6229 0.0000 -32.9605
v  -20.1785 0.0000 -43.5170
v  -27.5814 0.0000 -42.9141
v  -14.0269 0.0000 -32.2833
v  -13.6800 0.0000 -43.8331
v  -6.7176 0.0000 -34.6160
v  -5.8706 0.0000 -41.9672
v  4.1635 0.0000 -33.8728
v  3.5951 0.0000 -44.5337
v  10.6290 0.0000 -35.7621
v  8.9777 0.0000 -45.1465
v  18.9437 0.0000 -34.6936
v  24.6354 0.0000 -39.5778
v  29.1247 0.0000 -42.2114
v  34.8119 0.0000 -42.2107
v  -25.4753 0.0000 -51.4056
v  -20.1785 0.0000 -51.4056
v  -15.5414 0.0000 -50.9735
v  -25.1630 -0.4614 15.9177
v  -20.8595 -5.6176 13.4589
v  -20.7466 -5.1370 15.9177
v  -19.0299 -7.9994 14.3407
v  -19.0585 -7.9815 14.4233
v  -18.6049 -8.2535 15.9177
v  -17.6930 0.1265 18.0835
v  -15.5972 0.1316 21.4155
v  -19.2948 -7.8429 19.1424
v  -20.8595 -5.5519 19.4996
v  35.1931 0.0000 19.1933
v  35.3209 0.0000 13.1201
v  43.2177 0.0000 11.9561
v  32.6373 0.0000 13.9392
v  32.6279 0.0000 18.5558
v  63.6562 -0.3371 21.3414
v  63.6562 -0.3371 19.4619
v  43.2887 3.4686 20.5799
v  63.7272 3.1314 20.4507
v  63.6562 -0.3371 11.8269
v  63.6799 3.1773 12.1905
v  43.2414 3.5145 12.3198
v  -22.4723 0.0000 -111.7906
v  -27.6702 0.0000 -111.7906
v  -14.5477 0.0000 -111.7906
v  30.5047 0.0000 19.5911
v  29.6512 0.0000 27.4797
v  31.9414 0.0000 16.4705
v  30.8181 0.0000 14.2120
v  45.4192 0.0000 -4.0744
v  39.2976 0.0000 -2.4606
v  42.2595 0.0000 -4.4922
v  45.4192 0.0000 -11.9629
v  -29.5987 0.0000 -45.5135
v  19.4441 0.0000 -27.7400
v  10.3251 0.0000 -28.3267
v  13.0092 0.0000 -21.4544
v  19.4441 0.0000 -24.9910
# 193 vertices

vn 0.0000 1.0000 -0.0000
vn -0.0075 1.0000 0.0064
vn 0.0000 0.9990 0.0451
vn 0.0609 0.9979 -0.0201
vn 0.1196 0.9928 0.0056
vn 0.0601 0.9979 -0.0253
vn 0.1136 0.9899 -0.0851
vn 0.0751 0.9971 0.0150
vn 0.0151 0.9886 -0.1500
vn -0.0239 0.9997 0.0016
vn -0.1068 0.9937 0.0326
vn -0.0750 0.9583 -0.2756
vn 0.0740 0.9736 -0.2160
vn 0.0252 0.9544 -0.2976
vn 0.0762 0.9583 -0.2755
vn -0.0212 0.9998 -0.0071
vn -0.0711 0.9974 -0.0088
vn -0.2468 0.9689 0.0178
vn -0.2270 0.9731 0.0383
vn -0.3420 0.9296 -0.1370
vn -0.2352 0.9717 -0.0204
vn -0.1469 0.9570 -0.2500
vn 0.0695 0.9564 -0.2835
vn 0.0414 0.9991 -0.0049
vn 0.2263 0.9718 -0.0659
vn -0.0071 0.9997 -0.0213
vn 0.0283 0.9996 -0.0000
vn 0.0071 0.9999 -0.0071
vn 0.0042 1.0000 0.0045
vn 0.2321 0.9701 0.0713
vn -0.0048 1.0000 0.0043
vn -0.0165 0.9999 -0.0043
vn -0.4585 0.8758 0.1509
vn -0.6096 0.7926 0.0157
vn -0.3987 0.9171 0.0048
vn -0.6222 0.7822 -0.0328
vn -0.4450 0.8871 -0.1223
vn -0.2139 0.9768 -0.0017
vn -0.2076 0.9782 -0.0031
vn -0.0133 0.9981 -0.0603
vn 0.0229 0.9995 -0.0229
vn 0.0394 0.9992 -0.0011
vn -0.1478 0.9740 -0.1718
vn -0.0254 0.9994 -0.0252
vn 0.4605 0.8876 -0.0017
vn 0.5551 0.8279 -0.0805
vn 0.5550 0.8317 -0.0112
vn 0.4131 0.9014 -0.1297
vn 0.4117 0.9017 -0.1324
vn 0.4166 0.9091 -0.0041
vn 0.4201 0.9005 0.1124
vn 0.5651 0.8233 0.0525
vn -0.3219 0.0376 0.9460
vn 0.0354 -0.0046 0.9994
vn 0.0932 -0.0122 -0.9956
vn -0.2491 0.0291 -0.9680
vn 0.0043 0.0000 1.0000
vn 0.2919 0.0000 0.9564
vn 0.2412 0.0000 -0.9705
vn -0.0533 0.0000 -0.9986
vn 0.0165 0.9999 -0.0000
vn -0.0102 -0.2485 -0.9686
vn 0.0046 -0.1030 0.9947
# 63 vertex normals

vt 0.5000 0.0000 0.0000
vt 0.5000 0.0588 0.0000
vt 0.4167 0.0588 0.0000
vt 0.4167 0.0000 0.0000
vt 0.5833 0.0000 0.0000
vt 0.5833 0.0588 0.0000
vt 0.5000 0.1176 0.0000
vt 0.4167 0.1176 0.0000
vt 0.5833 0.1176 0.0000
vt 0.5000 0.1765 0.0000
vt 0.4167 0.1765 0.0000
vt 0.5833 0.1765 0.0000
vt 0.6667 0.1176 0.0000
vt 0.6667 0.1765 0.0000
vt 0.7500 0.1176 0.0000
vt 0.7500 0.1765 0.0000
vt 0.8333 0.1176 0.0000
vt 0.8333 0.1765 0.0000
vt 0.9167 0.1176 0.0000
vt 0.9167 0.1765 0.0000
vt 0.2500 0.1765 0.0000
vt 0.3333 0.1765 0.0000
vt 0.3333 0.2353 0.0000
vt 0.2500 0.2353 0.0000
vt 0.4167 0.2353 0.0000
vt 0.5000 0.2353 0.0000
vt 0.5833 0.2353 0.0000
vt 0.6667 0.2353 0.0000
vt 0.7500 0.2353 0.0000
vt 0.8333 0.2353 0.0000
vt 0.8333 0.2023 0.0000
vt 0.9012 0.2042 0.0000
vt 0.9167 0.2353 0.0000
vt 0.5000 0.2941 0.0000
vt 0.4167 0.2941 0.0000
vt 0.5833 0.2941 0.0000
vt 0.6667 0.2941 0.0000
vt 0.7500 0.2941 0.0000
vt 0.8333 0.2941 0.0000
vt 0.9167 0.2941 0.0000
vt 0.1667 0.2941 0.0000
vt 0.1667 0.3529 0.0000
vt 0.0833 0.3529 0.0000
vt 0.0833 0.2941 0.0000
vt 0.2002 0.3306 0.0000
vt 0.2500 0.2941 0.0000
vt 0.2500 0.3273 0.0000
vt 0.5000 0.3529 0.0000
vt 0.4167 0.3529 0.0000
vt 0.5833 0.3529 0.0000
vt 0.6667 0.3529 0.0000
vt 0.7003 0.2941 0.0000
vt 0.7500 0.3529 0.0000
vt 0.9167 0.3389 0.0000
vt 0.9167 0.3529 0.0000
vt 0.8333 0.3529 0.0000
vt 0.1667 0.4118 0.0000
vt 0.0833 0.4118 0.0000
vt 0.2006 0.3714 0.0000
vt 0.2500 0.4118 0.0000
vt 0.2500 0.3727 0.0000
vt 0.2790 0.3655 0.0000
vt 0.3333 0.3529 0.0000
vt 0.2846 0.3529 0.0000
vt 0.3333 0.4118 0.0000
vt 0.5000 0.4118 0.0000
vt 0.4167 0.4118 0.0000
vt 0.5833 0.4118 0.0000
vt 0.6667 0.4118 0.0000
vt 0.7500 0.4118 0.0000
vt 0.8194 0.3632 0.0000
vt 0.8333 0.3591 0.0000
vt 0.8105 0.3710 0.0000
vt 0.8182 0.3643 0.0000
vt 0.8333 0.3911 0.0000
vt 0.8158 0.3850 0.0000
vt 0.8163 0.3860 0.0000
vt 0.8689 0.3578 0.0000
vt 0.8717 0.3937 0.0000
vt 0.1667 0.4706 0.0000
vt 0.0833 0.4706 0.0000
vt 0.2500 0.4706 0.0000
vt 0.5000 0.4706 0.0000
vt 0.4167 0.4706 0.0000
vt 0.5833 0.4706 0.0000
vt 0.6667 0.4706 0.0000
vt 0.7500 0.4706 0.0000
vt 0.8333 0.4118 0.0000
vt 0.9167 0.4118 0.0000
vt 0.9167 0.4706 0.0000
vt 0.8333 0.4706 0.0000
vt 0.1667 0.5294 0.0000
vt 0.0833 0.5294 0.0000
vt 0.2500 0.5294 0.0000
vt 0.3333 0.4706 0.0000
vt 0.3333 0.5294 0.0000
vt 0.4167 0.5294 0.0000
vt 0.5000 0.5294 0.0000
vt 0.5833 0.5294 0.0000
vt 0.1667 0.5882 0.0000
vt 0.0833 0.5882 0.0000
vt 0.2500 0.5882 0.0000
vt 0.6667 0.5294 0.0000
vt 0.6667 0.5882 0.0000
vt 0.5833 0.5882 0.0000
vt 0.7500 0.5294 0.0000
vt 0.7500 0.5882 0.0000
vt 0.8333 0.5294 0.0000
vt 0.8333 0.5882 0.0000
vt 0.1667 0.6471 0.0000
vt 0.0833 0.6471 0.0000
vt 0.2500 0.6471 0.0000
vt 0.6667 0.6471 0.0000
vt 0.5833 0.6471 0.0000
vt 0.7500 0.6471 0.0000
vt 0.8333 0.6471 0.0000
vt 0.1667 0.7059 0.0000
vt 0.0833 0.7059 0.0000
vt 0.2500 0.7059 0.0000
vt 0.3333 0.6471 0.0000
vt 0.3333 0.7059 0.0000
vt 0.4167 0.6471 0.0000
vt 0.4167 0.7059 0.0000
vt 0.5000 0.6471 0.0000
vt 0.5000 0.7059 0.0000
vt 0.8333 0.7059 0.0000
vt 0.7500 0.7059 0.0000
vt 0.8333 0.7647 0.0000
vt 0.7500 0.7647 0.0000
vt 0.2500 0.7647 0.0000
vt 0.2500 0.8235 0.0000
vt 0.1927 0.8235 0.0000
vt 0.3333 0.7647 0.0000
vt 0.3333 0.8235 0.0000
vt 0.4167 0.7647 0.0000
vt 0.4167 0.8235 0.0000
vt 0.5000 0.7647 0.0000
vt 0.5000 0.8235 0.0000
vt 0.5833 0.7647 0.0000
vt 0.5833 0.8235 0.0000
vt 0.6667 0.7647 0.0000
vt 0.6667 0.8235 0.0000
vt 0.7500 0.8235 0.0000
vt 0.8333 0.8235 0.0000
vt 0.1667 0.8824 0.0000
vt 0.2500 0.8824 0.0000
vt 0.3333 0.8824 0.0000
vt 0.2038 0.3529 0.0000
vt 0.2500 0.3529 0.0000
vt 0.2794 0.3647 0.0000
vt 0.2761 0.3322 0.0000
vt 0.3333 0.2941 0.0000
vt 0.9167 0.4099 0.0000
vt 0.9167 0.3456 0.0000
vt 0.9167 0.4072 0.0000
vt 0.7830 0.3529 0.0000
vt 0.7740 0.2941 0.0000
vt 0.7934 0.3871 0.0000
vt 0.9167 0.5294 0.0000
vt 0.8763 0.5107 0.0000
vt 0.8925 0.5294 0.0000
vt 0.9167 0.5882 0.0000
vt 0.1667 0.8235 0.0000
vt 0.6667 0.7059 0.0000
vt 0.5833 0.7059 0.0000
vt 0.5833 0.6635 0.0000
vt 0.6667 0.6854 0.0000
# 167 texture coords

g Plane001
usemtl _grotte1colliderMaterial__26
s 1
f 1/1/1 2/2/1 3/3/1 4/4/1 
f 1/1/1 5/5/1 6/6/1 2/2/1 
f 2/2/1 7/7/1 8/8/1 3/3/1 
f 2/2/1 6/6/1 9/9/1 7/7/1 
f 7/7/1 10/10/2 11/11/1 8/8/1 
f 7/7/1 9/9/1 12/12/3 10/10/2 
f 13/13/1 14/14/1 15/12/1 16/9/1 
f 13/13/1 17/15/4 18/16/5 14/14/1 
f 17/15/4 19/17/6 20/18/7 18/16/5 
f 21/19/8 22/20/9 20/18/7 19/17/6 
f 23/21/1 24/22/1 25/23/1 26/24/1 
f 11/11/1 27/25/1 25/23/1 24/22/1 
f 10/10/2 28/26/10 27/25/1 11/11/1 
f 12/12/3 29/27/11 28/26/10 10/10/2 
f 14/14/1 30/28/1 31/27/1 15/12/1 
f 14/14/1 18/16/5 32/29/1 30/28/1 
f 33/30/12 34/31/13 35/32/14 36/33/15 
f 28/26/10 37/34/16 38/35/1 27/25/1 
f 28/26/10 29/27/11 39/36/17 37/34/16 
f 40/28/18 41/37/19 39/36/17 29/27/11 
f 40/28/18 42/29/20 43/38/21 41/37/19 
f 42/29/20 33/30/12 44/39/22 43/38/21 
f 36/33/15 45/40/23 44/39/22 33/30/12 
f 46/41/1 47/42/24 48/43/1 49/44/1 
f 50/45/25 47/42/24 46/41/1 51/46/1 
f 50/45/25 51/46/1 52/47/1 
f 38/35/1 37/34/16 53/48/1 54/49/1 
f 39/36/17 55/50/26 53/48/1 37/34/16 
f 56/37/27 57/51/28 55/50/26 39/36/17 
f 58/52/1 59/53/1 57/51/28 56/37/27 
f 60/54/1 61/55/1 62/39/1 63/40/1 
f 64/56/1 62/39/1 61/55/1 
f 47/42/24 65/57/29 66/58/1 48/43/1 
f 65/57/29 47/42/24 67/59/30 68/60/31 
f 67/59/30 69/61/32 68/60/31 
f 68/60/31 69/61/32 70/62/1 71/63/1 
f 70/62/1 72/64/1 71/63/1 
f 68/60/31 71/63/1 73/65/1 
f 54/49/1 53/48/1 74/66/1 75/67/1 
f 55/50/26 76/68/1 74/66/1 53/48/1 
f 57/51/28 77/69/1 76/68/1 55/50/26 
f 59/53/1 78/70/1 77/69/1 57/51/28 
f 79/71/33 80/72/34 81/73/35 82/74/33 
f 81/73/35 80/72/34 83/75/36 84/76/37 
f 85/77/37 84/76/37 83/75/36 
f 86/78/38 87/79/39 83/75/36 80/72/34 
f 65/57/29 88/80/1 89/81/1 66/58/1 
f 65/57/29 68/60/31 90/82/1 88/80/1 
f 75/67/1 74/66/1 91/83/1 92/84/40 
f 76/68/1 93/85/1 91/83/1 74/66/1 
f 76/68/1 77/69/1 94/86/1 93/85/1 
f 77/69/1 78/70/1 95/87/1 94/86/1 
f 96/88/1 97/89/1 98/90/1 99/91/1 
f 89/81/1 88/80/1 100/92/1 101/93/1 
f 90/82/1 102/94/1 100/92/1 88/80/1 
f 103/95/41 104/96/42 102/94/1 90/82/1 
f 92/84/40 105/97/43 104/96/42 103/95/41 
f 91/83/1 106/98/44 105/97/43 92/84/40 
f 106/98/44 91/83/1 93/85/1 107/99/1 
f 100/92/1 108/100/1 109/101/1 101/93/1 
f 100/92/1 102/94/1 110/102/1 108/100/1 
f 107/99/1 111/103/1 112/104/1 113/105/1 
f 111/103/1 114/106/1 115/107/1 112/104/1 
f 116/108/1 117/109/1 115/107/1 114/106/1 
f 109/101/1 108/100/1 118/110/1 119/111/1 
f 108/100/1 110/102/1 120/112/1 118/110/1 
f 112/104/1 121/113/1 122/114/1 113/105/1 
f 112/104/1 115/107/1 123/115/1 121/113/1 
f 115/107/1 117/109/1 124/116/1 123/115/1 
f 118/110/1 125/117/1 126/118/1 119/111/1 
f 118/110/1 120/112/1 127/119/1 125/117/1 
f 128/120/1 129/121/1 127/119/1 120/112/1 
f 130/122/1 131/123/1 129/121/1 128/120/1 
f 132/124/1 133/125/1 131/123/1 130/122/1 
f 123/115/1 124/116/1 134/126/1 135/127/1 
f 134/126/1 136/128/1 137/129/1 135/127/1 
f 138/130/1 139/131/1 140/132/1 
f 141/133/1 142/134/1 139/131/1 138/130/1 
f 143/135/1 144/136/1 142/134/1 141/133/1 
f 145/137/1 146/138/1 144/136/1 143/135/1 
f 147/139/1 148/140/1 146/138/1 145/137/1 
f 149/141/1 150/142/1 148/140/1 147/139/1 
f 137/129/1 151/143/1 150/142/1 149/141/1 
f 136/128/1 152/144/1 151/143/1 137/129/1 
f 153/145/1 140/132/1 139/131/1 154/146/1 
f 139/131/1 142/134/1 155/147/1 154/146/1 
f 35/32/14 20/18/7 22/20/9 36/33/15 
f 34/31/13 20/18/7 35/32/14 
f 67/59/30 47/42/24 156/148/45 
f 157/61/46 158/149/47 159/150/48 160/62/49 
f 158/149/47 161/64/50 159/150/48 
f 72/64/1 162/151/1 163/152/1 71/63/1 
f 163/152/1 162/151/1 52/47/1 51/46/1 
f 164/151/51 161/64/50 158/149/47 165/47/52 
f 156/148/45 47/42/24 50/45/25 
f 158/149/47 156/148/45 50/45/25 165/47/52 
f 158/149/47 157/61/46 67/59/30 156/148/45 
s off
f 70/62/53 69/61/53 157/61/53 160/62/53 
f 69/61/54 67/59/54 157/61/54 
f 50/45/55 52/47/55 165/47/55 
f 162/151/56 164/151/56 165/47/56 52/47/56 
s 1
f 64/56/1 61/55/1 86/78/38 166/72/1 
f 96/88/1 167/75/1 87/79/39 97/89/1 
f 87/79/39 86/78/38 168/153/1 97/89/1 
f 61/55/1 168/153/1 86/78/38 
s off
f 87/79/57 167/75/57 83/75/57 
f 169/77/58 85/77/58 83/75/58 167/75/58 
f 170/71/59 166/72/59 80/72/59 79/71/59 
f 166/72/60 86/78/60 80/72/60 
f 60/54/61 171/54/61 172/55/61 61/55/61 
f 173/154/62 174/154/62 171/54/62 60/54/62 
f 168/153/63 175/153/63 176/155/63 177/155/63 
f 61/55/61 172/55/61 175/153/61 168/153/61 
f 153/145/1 154/146/1 178/146/1 179/145/1 
f 154/146/1 155/147/1 180/147/1 178/146/1 
s 1
f 62/39/1 64/56/1 181/156/1 182/157/1 
f 64/56/1 166/72/1 170/71/1 181/156/1 
f 181/156/1 170/71/1 183/73/1 184/158/1 
f 167/75/1 96/88/1 184/158/1 169/77/1 
f 183/73/1 169/77/1 184/158/1 
f 98/90/1 185/159/1 186/160/1 99/91/1 
f 185/159/1 187/161/1 186/160/1 
f 187/161/1 185/159/1 188/162/1 
f 153/145/1 189/163/1 140/132/1 
f 190/164/1 191/165/1 192/166/1 193/167/1 
f 132/124/1 192/166/1 191/165/1 133/125/1 
f 106/98/44 107/99/1 113/105/1 
# 106 polygons - 21 triangles

