# 3ds Max Wavefront OBJ Exporter v0.97b - (c)2007 guruware
# File Created: 29.06.2015 13:27:28

mtllib Sapin.mtl

#
# object Cylinder001
#

v  0.0000 0.0000 -0.0000
v  9.2538 0.0000 -11.6039
v  14.8419 0.0000 -0.0000
v  -3.3026 0.0000 -14.4698
v  -13.3721 0.0000 -6.4397
v  -13.3721 0.0000 6.4397
v  -3.3026 0.0000 14.4698
v  9.2538 0.0000 11.6039
v  7.1235 7.3858 -9.8847
v  11.8837 7.3858 -0.0000
v  -3.5727 7.3858 -12.3260
v  -12.1503 7.3858 -5.4856
v  -12.1503 7.3858 5.4856
v  -3.5727 7.3858 12.3260
v  7.1235 7.3858 9.8847
v  10.8938 17.4755 -0.0000
v  5.7375 25.2605 -7.1946
v  9.2022 25.2605 -0.0000
v  6.7922 17.4755 -8.5171
v  -2.0477 25.2605 -8.9715
v  -2.4241 17.4755 -10.6207
v  -8.2909 25.2605 -3.9927
v  -9.8150 17.4755 -4.7266
v  -8.2909 25.2605 3.9927
v  -9.8150 17.4755 4.7266
v  -2.0477 25.2605 8.9715
v  -2.4241 17.4755 10.6207
v  5.7375 25.2605 7.1946
v  6.7922 17.4755 8.5171
v  5.7375 39.8220 -7.1946
v  9.2022 39.8220 -0.0000
v  -2.0477 39.8220 -8.9715
v  -8.2909 39.8220 -3.9927
v  -8.2909 39.8220 3.9927
v  -2.0477 39.8220 8.9715
v  5.7375 39.8220 7.1946
v  5.0103 50.8645 -6.2828
v  8.0360 50.8645 -0.0000
v  -1.7882 50.8645 -7.8345
v  -7.2402 50.8645 -3.4867
v  -7.2402 50.8645 3.4867
v  -1.7882 50.8645 7.8345
v  5.0103 50.8645 6.2828
v  5.0103 63.5806 -6.2828
v  8.0360 63.5806 -0.0000
v  -1.7882 63.5806 -7.8345
v  -7.2402 63.5806 -3.4867
v  -7.2402 63.5806 3.4867
v  -1.7882 63.5806 7.8345
v  5.0103 63.5806 6.2828
v  0.0000 63.5806 -0.0000
v  -1.4046 141.7667 -0.9685
v  -1.9261 141.9189 -0.6630
v  64.3611 60.3909 6.1621
v  -1.8657 141.9536 -1.3490
v  -1.0578 140.9587 -1.2574
v  -1.7807 140.8956 -2.1608
v  -2.2353 141.9522 -1.0543
v  -22.3049 60.3909 -26.6412
v  -66.2609 60.3909 -7.1843
v  -25.3984 60.3909 16.4144
v  14.5804 60.3909 25.9034
v  0.0000 60.3909 -0.0000
v  24.1170 60.3909 -22.4374
v  4.6808 60.3909 -63.9303
v  -6.5807 60.3909 62.9081
v  -1.8998 142.3795 -1.0222
v  -1.8822 142.1591 -1.1913
v  -1.5274 163.8415 0.3148
v  -1.6555 163.9938 0.8522
v  44.7613 82.4500 -38.5889
v  -2.0701 164.0284 0.3786
v  -1.4989 163.0333 -0.0967
v  -2.5522 162.9703 -0.1907
v  -2.1093 164.0271 0.8089
v  -31.6887 82.4500 -2.1209
v  -46.6373 82.4500 39.1967
v  -5.2234 82.4500 27.1439
v  26.3177 82.4500 6.7533
v  0.0000 82.4500 -0.0000
v  0.4374 82.4500 -30.1062
v  -39.2411 82.4500 -43.5111
v  37.3651 82.4500 44.1189
v  -1.8760 164.4545 0.6078
v  -1.9764 164.2340 0.4892
v  -1.2636 191.4109 -0.8367
v  -1.7217 191.5500 -0.5567
v  57.2632 117.0981 4.3990
v  -1.6794 191.5816 -1.1670
v  -0.9605 190.6731 -1.0991
v  -1.6176 190.6155 -1.8893
v  -2.0028 191.5804 -0.8991
v  -20.2539 117.0981 -23.2885
v  -58.9675 117.0981 -5.2752
v  -22.2830 117.0981 15.0017
v  13.3813 117.0981 22.7621
v  0.0000 117.0981 -0.0000
v  21.0444 117.0981 -20.3295
v  3.0906 117.0981 -56.8558
v  -4.7950 117.0981 55.9797
v  -1.7043 191.9706 -0.8761
v  -1.6915 191.7693 -1.0266
# 102 vertices

vn 0.0000 -1.0000 -0.0000
vn 0.9283 0.3718 0.0000
vn 0.5899 0.2410 -0.7707
vn 0.9691 0.2466 0.0000
vn 0.5994 0.3414 -0.7240
vn -0.2398 0.2276 -0.9437
vn -0.1918 0.2671 -0.9444
vn -0.8841 0.2165 -0.4141
vn -0.8777 0.2014 -0.4348
vn -0.8841 0.2165 0.4141
vn -0.8777 0.2014 0.4348
vn -0.2398 0.2276 0.9437
vn -0.1918 0.2671 0.9444
vn 0.5899 0.2410 0.7707
vn 0.5994 0.3414 0.7240
vn 0.9883 0.1528 0.0000
vn 0.6197 0.1101 -0.7771
vn 0.9939 0.1101 -0.0000
vn 0.6216 0.1666 -0.7654
vn -0.2212 0.1101 -0.9690
vn -0.2072 0.1981 -0.9580
vn -0.8955 0.1101 -0.4312
vn -0.8759 0.2239 -0.4274
vn -0.8955 0.1101 0.4312
vn -0.8759 0.2239 0.4274
vn -0.2212 0.1101 0.9690
vn -0.2072 0.1981 0.9580
vn 0.6197 0.1101 0.7771
vn 0.6216 0.1666 0.7654
vn 0.6227 0.0518 -0.7808
vn 0.9987 0.0518 0.0000
vn -0.2222 0.0518 -0.9736
vn -0.8998 0.0518 -0.4333
vn -0.8998 0.0518 0.4333
vn -0.2222 0.0518 0.9736
vn 0.6227 0.0518 0.7808
vn 0.6226 0.0534 -0.7807
vn 0.9986 0.0534 0.0000
vn -0.2222 0.0534 -0.9735
vn -0.8997 0.0534 -0.4333
vn -0.8997 0.0534 0.4333
vn -0.2222 0.0534 0.9735
vn 0.6226 0.0534 0.7807
vn 0.6235 0.0000 -0.7818
vn 1.0000 0.0000 -0.0000
vn -0.2225 0.0000 -0.9749
vn -0.9010 0.0000 -0.4339
vn -0.9010 0.0000 0.4339
vn -0.2225 0.0000 0.9749
vn 0.6235 0.0000 0.7818
vn 0.0000 1.0000 -0.0000
vn 0.5419 0.4973 0.6775
vn 0.5553 0.4579 0.6943
vn 0.3458 0.3539 0.8690
vn 0.6647 0.4876 -0.5660
vn 0.6714 0.4719 -0.5714
vn -0.5575 0.4405 -0.7036
vn -0.5847 0.3710 -0.7215
vn -0.3775 0.3605 -0.8529
vn -0.6735 0.3900 0.6280
vn -0.4753 0.3112 0.8230
vn -0.7072 0.3351 0.6226
vn -0.7366 0.3849 0.5561
vn -0.8761 0.3265 0.3546
vn -0.6674 0.4812 0.5683
vn -0.5476 0.4813 -0.6845
vn -0.6846 0.3760 -0.6244
vn 0.6223 0.3536 0.6984
vn 0.8225 0.3198 0.4703
vn 0.5393 0.3682 -0.7574
vn 0.7109 0.3780 -0.5930
vn 0.8410 0.3683 -0.3964
vn -0.7561 0.3591 -0.5472
vn 0.8823 0.4641 0.0789
vn 0.9000 0.4284 0.0805
vn 0.8758 0.3268 0.3551
vn 0.0521 0.4546 -0.8892
vn 0.0527 0.4404 -0.8963
vn -0.9075 0.4115 -0.0847
vn -0.9361 0.3429 -0.0777
vn -0.8867 0.3330 -0.3208
vn -0.0154 0.3629 0.9317
vn 0.2677 0.2867 0.9198
vn -0.0405 0.3091 0.9502
vn -0.1062 0.3575 0.9279
vn -0.3531 0.3011 0.8858
vn -0.0523 0.4484 0.8923
vn -0.8902 0.4485 -0.0796
vn -0.9356 0.3475 0.0625
vn 0.9445 0.3266 0.0351
vn 0.9164 0.2947 -0.2709
vn -0.1759 0.3402 -0.9237
vn 0.0642 0.3496 -0.9347
vn 0.2990 0.3403 -0.8915
vn -0.9280 0.3318 0.1693
vn 0.5583 0.4870 0.6717
vn 0.5712 0.4487 0.6873
vn 0.3633 0.3454 0.8653
vn 0.6582 0.4774 -0.5821
vn 0.6644 0.4621 -0.5873
vn -0.5736 0.4315 -0.6963
vn -0.6004 0.3622 -0.7130
vn -0.3949 0.3519 -0.8487
vn -0.6647 0.3815 0.6423
vn -0.4609 0.3035 0.8339
vn -0.6976 0.3269 0.6375
vn -0.7283 0.3764 0.5727
vn -0.8718 0.3185 0.3721
vn -0.6608 0.4710 0.5844
vn -0.5638 0.4711 -0.6784
vn -0.6988 0.3670 -0.6140
vn 0.6372 0.3451 0.6891
vn 0.8335 0.3119 0.4561
vn 0.5269 0.3594 -0.7702
vn 0.7024 0.3691 -0.6086
vn 0.8365 0.3595 -0.4136
vn -0.7689 0.3506 -0.5347
# 117 vertex normals

vt 0.9667 0.2102 0.0000
vt 0.9425 0.1909 0.0000
vt 0.9667 0.1793 0.0000
vt 0.9366 0.2171 0.0000
vt 0.9533 0.2381 0.0000
vt 0.9801 0.2381 0.0000
vt 0.9969 0.2171 0.0000
vt 0.9909 0.1909 0.0000
vt 0.8586 0.0257 0.0000
vt 0.8750 0.0038 0.0000
vt 0.8750 0.0257 0.0000
vt 0.8586 0.0000 0.0000
vt 0.8578 0.1010 0.0000
vt 0.8743 0.0723 0.0000
vt 0.8743 0.0962 0.0000
vt 0.8578 0.0729 0.0000
vt 0.8743 0.0531 0.0000
vt 0.8578 0.0504 0.0000
vt 0.8623 0.1773 0.0000
vt 0.8778 0.1523 0.0000
vt 0.8778 0.1753 0.0000
vt 0.8623 0.1503 0.0000
vt 0.8578 0.1504 0.0000
vt 0.8743 0.1285 0.0000
vt 0.8743 0.1476 0.0000
vt 0.8578 0.1279 0.0000
vt 0.8743 0.1045 0.0000
vt 0.8578 0.0998 0.0000
vt 0.8586 0.0513 0.0000
vt 0.8750 0.0475 0.0000
vt 0.8973 0.0257 0.0000
vt 0.9145 0.0097 0.0000
vt 0.9145 0.0257 0.0000
vt 0.8973 0.0068 0.0000
vt 0.8969 0.0955 0.0000
vt 0.9143 0.0757 0.0000
vt 0.9143 0.0931 0.0000
vt 0.8969 0.0749 0.0000
vt 0.9143 0.0617 0.0000
vt 0.8969 0.0583 0.0000
vt 0.8989 0.1737 0.0000
vt 0.9152 0.1555 0.0000
vt 0.9152 0.1722 0.0000
vt 0.8989 0.1539 0.0000
vt 0.8969 0.1424 0.0000
vt 0.9143 0.1250 0.0000
vt 0.9143 0.1390 0.0000
vt 0.8969 0.1259 0.0000
vt 0.9143 0.1076 0.0000
vt 0.8969 0.1053 0.0000
vt 0.8973 0.0445 0.0000
vt 0.9145 0.0416 0.0000
vt 0.9467 0.0097 0.0000
vt 0.9467 0.0257 0.0000
vt 0.9469 0.0757 0.0000
vt 0.9469 0.0931 0.0000
vt 0.9469 0.0617 0.0000
vt 0.9457 0.1555 0.0000
vt 0.9457 0.1722 0.0000
vt 0.9469 0.1250 0.0000
vt 0.9469 0.1390 0.0000
vt 0.9469 0.1076 0.0000
vt 0.9467 0.0416 0.0000
vt 0.9711 0.0118 0.0000
vt 0.9711 0.0257 0.0000
vt 0.9716 0.0763 0.0000
vt 0.9716 0.0915 0.0000
vt 0.9716 0.0641 0.0000
vt 0.9689 0.1565 0.0000
vt 0.9689 0.1711 0.0000
vt 0.9716 0.1245 0.0000
vt 0.9716 0.1367 0.0000
vt 0.9716 0.1093 0.0000
vt 0.9711 0.0396 0.0000
vt 0.9992 0.0118 0.0000
vt 0.9992 0.0257 0.0000
vt 1.0000 0.0763 0.0000
vt 1.0000 0.0915 0.0000
vt 1.0000 0.0641 0.0000
vt 0.9955 0.1565 0.0000
vt 0.9955 0.1711 0.0000
vt 1.0000 0.1245 0.0000
vt 1.0000 0.1367 0.0000
vt 1.0000 0.1093 0.0000
vt 0.9992 0.0396 0.0000
vt 0.8424 0.0178 0.0000
vt 0.8424 0.0011 0.0000
vt 0.8555 0.0074 0.0000
vt 0.8587 0.0216 0.0000
vt 0.8497 0.0329 0.0000
vt 0.8351 0.0329 0.0000
vt 0.8261 0.0216 0.0000
vt 0.8293 0.0074 0.0000
vt 0.5206 0.8240 0.0000
vt 0.5193 0.8244 0.0000
vt 0.6223 0.6206 0.0000
vt 0.7307 0.6106 0.0000
vt 0.7295 0.6082 0.0000
vt 0.7319 0.6081 0.0000
vt 0.2650 0.4432 0.0000
vt 0.1962 0.2666 0.0000
vt 0.2774 0.2095 0.0000
vt 0.5435 0.2430 0.0000
vt 0.5385 0.0265 0.0000
vt 0.6210 0.0800 0.0000
vt 0.7368 0.6578 0.0000
vt 0.7235 0.7183 0.0000
vt 0.6320 0.6194 0.0000
vt 0.6549 0.7198 0.0000
vt 0.6275 0.8113 0.0000
vt 0.7213 0.7907 0.0000
vt 0.8166 0.8214 0.0000
vt 0.7858 0.7280 0.0000
vt 0.3485 0.4412 0.0000
vt 0.2752 0.2706 0.0000
vt 0.3600 0.2111 0.0000
vt 0.8211 0.6296 0.0000
vt 0.5435 0.2441 0.0000
vt 0.5444 0.2434 0.0000
vt 0.5308 0.0274 0.0000
vt 0.5308 0.0302 0.0000
vt 0.5298 0.0270 0.0000
vt 0.5307 0.0268 0.0000
vt 0.7305 0.6111 0.0000
vt 0.3479 0.4418 0.0000
vt 0.4455 0.4421 0.0000
vt 0.3581 0.2780 0.0000
vt 0.4439 0.2073 0.0000
vt 0.4253 0.6206 0.0000
vt 0.5113 0.6375 0.0000
vt 0.5307 0.0263 0.0000
vt 0.7295 0.6102 0.0000
vt 0.7302 0.6117 0.0000
vt 0.5198 0.8255 0.0000
vt 0.6276 0.4127 0.0000
vt 0.1878 0.4439 0.0000
vt 0.1220 0.2665 0.0000
vt 0.1991 0.2123 0.0000
vt 0.7290 0.4252 0.0000
vt 0.8227 0.4127 0.0000
vt 0.4546 0.1962 0.0000
vt 0.5354 0.2463 0.0000
vt 0.4440 0.5243 0.0000
vt 0.4444 0.5254 0.0000
vt 0.2645 0.4385 0.0000
vt 0.4239 0.7240 0.0000
vt 0.4217 0.7252 0.0000
vt 0.4216 0.7229 0.0000
vt 0.2449 0.7295 0.0000
vt 0.0664 0.7359 0.0000
vt 0.0664 0.6455 0.0000
vt 0.8251 0.1265 0.0000
vt 0.6462 0.2242 0.0000
vt 0.6462 0.1333 0.0000
vt 0.7243 0.3744 0.0000
vt 0.7341 0.3186 0.0000
vt 0.8215 0.4055 0.0000
vt 0.7968 0.3147 0.0000
vt 0.8183 0.2301 0.0000
vt 0.7335 0.2524 0.0000
vt 0.6452 0.2279 0.0000
vt 0.6769 0.3121 0.0000
vt 0.8251 0.1255 0.0000
vt 0.6462 0.0399 0.0000
vt 0.6484 0.4033 0.0000
vt 0.8261 0.1260 0.0000
vt 0.2449 0.7304 0.0000
vt 0.2426 0.7316 0.0000
vt 0.2454 0.7302 0.0000
vt 0.4244 0.7242 0.0000
vt 0.2645 0.5384 0.0000
vt 0.2645 0.6208 0.0000
vt 0.2459 0.7299 0.0000
vt 0.4235 0.7252 0.0000
vt 0.4249 0.7244 0.0000
vt 0.4454 0.5249 0.0000
vt 0.2455 0.8264 0.0000
vt 0.2455 0.7295 0.0000
vt 0.2455 0.6427 0.0000
vt 0.0664 0.8265 0.0000
vt 0.4526 0.0471 0.0000
vt 0.4535 0.0463 0.0000
vt 0.4534 0.2446 0.0000
vt 0.5386 0.6148 0.0000
vt 0.5375 0.6127 0.0000
vt 0.5396 0.6125 0.0000
vt 0.2688 0.2171 0.0000
vt 0.2057 0.0555 0.0000
vt 0.2773 0.0051 0.0000
vt 0.1988 0.0075 0.0000
vt 0.1990 0.2215 0.0000
vt 0.1324 0.1707 0.0000
vt 0.5446 0.2858 0.0000
vt 0.5338 0.3397 0.0000
vt 0.4509 0.2534 0.0000
vt 0.4729 0.3421 0.0000
vt 0.4501 0.4239 0.0000
vt 0.5330 0.4041 0.0000
vt 0.6182 0.4298 0.0000
vt 0.5893 0.3473 0.0000
vt 0.3523 0.2153 0.0000
vt 0.2851 0.0593 0.0000
vt 0.3600 0.0066 0.0000
vt 0.6190 0.2593 0.0000
vt 0.4473 0.4284 0.0000
vt 0.4467 0.4292 0.0000
vt 0.4462 0.4284 0.0000
vt 0.6401 0.4055 0.0000
vt 0.6391 0.4032 0.0000
vt 0.6410 0.4055 0.0000
vt 0.6404 0.4060 0.0000
vt 0.5384 0.6153 0.0000
vt 0.3517 0.2158 0.0000
vt 0.4455 0.2127 0.0000
vt 0.3655 0.0625 0.0000
vt 0.4414 0.0000 0.0000
vt 0.0619 0.2306 0.0000
vt 0.0614 0.4441 0.0000
vt 0.0011 0.3981 0.0000
vt 0.6406 0.4065 0.0000
vt 0.5375 0.6144 0.0000
vt 0.5382 0.6157 0.0000
vt 0.4526 0.0456 0.0000
vt 0.4485 0.4381 0.0000
vt 0.0605 0.8306 0.0000
vt 0.0000 0.6683 0.0000
vt 0.0680 0.6205 0.0000
vt 0.1223 0.2256 0.0000
vt 0.1262 0.4483 0.0000
vt 0.0579 0.3962 0.0000
vt 0.6189 0.4381 0.0000
vt 0.6404 0.2388 0.0000
vt 0.1261 0.0253 0.0000
vt 0.1240 0.2435 0.0000
vt 0.0606 0.1951 0.0000
# 235 texture coords

g Cylinder001
usemtl wire_011005002
s 1
f 1/1/1 2/2/1 3/3/1 
f 1/1/1 4/4/1 2/2/1 
f 1/1/1 5/5/1 4/4/1 
f 1/1/1 6/6/1 5/5/1 
f 1/1/1 7/7/1 6/6/1 
f 1/1/1 8/8/1 7/7/1 
f 1/1/1 3/3/1 8/8/1 
s 8
f 3/9/2 9/10/3 10/11/4 
f 3/9/2 2/12/5 9/10/3 
f 2/13/5 11/14/6 9/15/3 
f 2/13/5 4/16/7 11/14/6 
f 4/16/7 12/17/8 11/14/6 
f 4/16/7 5/18/9 12/17/8 
f 5/19/9 13/20/10 12/21/8 
f 5/19/9 6/22/11 13/20/10 
f 6/23/11 14/24/12 13/25/10 
f 6/23/11 7/26/13 14/24/12 
f 7/26/13 15/27/14 14/24/12 
f 7/26/13 8/28/15 15/27/14 
f 8/29/15 10/11/4 15/30/14 
f 8/29/15 3/9/2 10/11/4 
f 16/31/16 17/32/17 18/33/18 
f 16/31/16 19/34/19 17/32/17 
f 19/35/19 20/36/20 17/37/17 
f 19/35/19 21/38/21 20/36/20 
f 21/38/21 22/39/22 20/36/20 
f 21/38/21 23/40/23 22/39/22 
f 23/41/23 24/42/24 22/43/22 
f 23/41/23 25/44/25 24/42/24 
f 25/45/25 26/46/26 24/47/24 
f 25/45/25 27/48/27 26/46/26 
f 27/48/27 28/49/28 26/46/26 
f 27/48/27 29/50/29 28/49/28 
f 29/51/29 18/33/18 28/52/28 
f 29/51/29 16/31/16 18/33/18 
f 18/33/18 30/53/30 31/54/31 
f 18/33/18 17/32/17 30/53/30 
f 17/37/17 32/55/32 30/56/30 
f 17/37/17 20/36/20 32/55/32 
f 20/36/20 33/57/33 32/55/32 
f 20/36/20 22/39/22 33/57/33 
f 22/43/22 34/58/34 33/59/33 
f 22/43/22 24/42/24 34/58/34 
f 24/47/24 35/60/35 34/61/34 
f 24/47/24 26/46/26 35/60/35 
f 26/46/26 36/62/36 35/60/35 
f 26/46/26 28/49/28 36/62/36 
f 28/52/28 31/54/31 36/63/36 
f 28/52/28 18/33/18 31/54/31 
f 31/54/31 37/64/37 38/65/38 
f 31/54/31 30/53/30 37/64/37 
f 30/56/30 39/66/39 37/67/37 
f 30/56/30 32/55/32 39/66/39 
f 32/55/32 40/68/40 39/66/39 
f 32/55/32 33/57/33 40/68/40 
f 33/59/33 41/69/41 40/70/40 
f 33/59/33 34/58/34 41/69/41 
f 34/61/34 42/71/42 41/72/41 
f 34/61/34 35/60/35 42/71/42 
f 35/60/35 43/73/43 42/71/42 
f 35/60/35 36/62/36 43/73/43 
f 36/63/36 38/65/38 43/74/43 
f 36/63/36 31/54/31 38/65/38 
f 38/65/38 44/75/44 45/76/45 
f 38/65/38 37/64/37 44/75/44 
f 37/67/37 46/77/46 44/78/44 
f 37/67/37 39/66/39 46/77/46 
f 39/66/39 47/79/47 46/77/46 
f 39/66/39 40/68/40 47/79/47 
f 40/70/40 48/80/48 47/81/47 
f 40/70/40 41/69/41 48/80/48 
f 41/72/41 49/82/49 48/83/48 
f 41/72/41 42/71/42 49/82/49 
f 42/71/42 50/84/50 49/82/49 
f 42/71/42 43/73/43 50/84/50 
f 43/74/43 45/76/45 50/85/50 
f 43/74/43 38/65/38 45/76/45 
s 1
f 51/86/51 45/87/51 44/88/51 
f 51/86/51 44/88/51 46/89/51 
f 51/86/51 46/89/51 47/90/51 
f 51/86/51 47/90/51 48/91/51 
f 51/86/51 48/91/51 49/92/51 
f 51/86/51 49/92/51 50/93/51 
f 51/86/51 50/93/51 45/87/51 
s 8
f 16/31/16 10/11/4 19/34/19 
f 9/10/3 19/34/19 10/11/4 
f 19/35/19 9/15/3 21/38/21 
f 11/14/6 21/38/21 9/15/3 
f 21/38/21 11/14/6 23/40/23 
f 12/17/8 23/40/23 11/14/6 
f 23/41/23 12/21/8 25/44/25 
f 13/20/10 25/44/25 12/21/8 
f 25/45/25 13/25/10 27/48/27 
f 14/24/12 27/48/27 13/25/10 
f 27/48/27 14/24/12 29/50/29 
f 15/27/14 29/50/29 14/24/12 
f 10/11/4 16/31/16 15/30/14 
f 29/51/29 15/30/14 16/31/16 
s 4
f 52/94/52 53/95/53 54/96/54 
s 2
f 55/97/55 56/98/56 57/99/55 
s 16
f 58/100/57 59/101/58 60/102/59 
s 32
f 58/103/60 60/104/61 61/105/62 
s 8
f 62/106/1 63/107/1 54/108/1 
f 64/109/1 63/107/1 65/110/1 
f 59/111/1 63/107/1 60/112/1 
f 60/112/1 63/107/1 61/113/1 
s 32
f 53/114/63 61/115/62 66/116/64 
s 8
f 61/113/1 63/107/1 66/117/1 
s 32
f 67/118/65 58/103/60 53/119/63 
s 16
f 55/120/66 57/121/67 58/122/57 
f 68/123/66 55/120/66 58/122/57 
s 2
f 68/124/55 56/98/56 55/97/55 
s 32
f 53/114/63 58/125/60 61/115/62 
s 4
f 53/126/53 62/127/68 54/128/54 
f 53/95/53 66/129/69 62/130/68 
s 8
f 66/117/1 63/107/1 62/106/1 
s 16
f 67/131/66 68/123/66 58/122/57 
s 2
f 52/132/55 56/98/56 68/124/55 
f 67/133/55 52/132/55 68/124/55 
s 4
f 67/134/52 53/95/53 52/94/52 
s 2
f 52/132/55 54/135/70 56/98/56 
f 56/136/56 64/137/71 65/138/72 
f 56/98/56 54/135/70 64/139/71 
s 8
f 54/108/1 63/107/1 64/109/1 
s 2
f 57/99/55 56/98/56 65/140/72 
s 16
f 57/121/67 59/141/58 58/122/57 
f 57/121/67 65/142/73 59/141/58 
s 8
f 65/110/1 63/107/1 59/111/1 
s 4
f 69/143/74 70/144/75 71/145/76 
s 2
f 72/146/77 73/147/78 74/148/77 
s 16
f 75/149/79 76/150/80 77/151/81 
s 32
f 75/152/82 77/153/83 78/154/84 
s 8
f 79/155/1 80/156/1 71/157/1 
f 81/158/1 80/156/1 82/159/1 
f 76/160/1 80/156/1 77/161/1 
f 77/161/1 80/156/1 78/162/1 
s 32
f 70/163/85 78/154/84 83/164/86 
s 8
f 78/162/1 80/156/1 83/165/1 
s 32
f 84/166/87 75/152/82 70/163/85 
s 16
f 72/167/88 74/168/89 75/149/79 
f 85/169/88 72/167/88 75/149/79 
s 2
f 85/170/77 73/147/78 72/146/77 
s 32
f 70/163/85 75/152/82 78/154/84 
s 4
f 70/144/75 79/171/90 71/145/76 
f 70/144/75 83/172/91 79/171/90 
s 8
f 83/165/1 80/156/1 79/155/1 
s 16
f 84/173/88 85/169/88 75/149/79 
s 2
f 69/174/77 73/147/78 85/170/77 
f 84/175/77 69/174/77 85/170/77 
s 4
f 84/176/74 70/144/75 69/143/74 
s 2
f 69/174/77 71/177/92 73/147/78 
f 73/147/78 81/178/93 82/179/94 
f 73/147/78 71/177/92 81/178/93 
s 8
f 71/157/1 80/156/1 81/158/1 
s 2
f 74/148/77 73/147/78 82/179/94 
s 16
f 74/168/89 76/150/80 75/149/79 
f 74/168/89 82/180/95 76/150/80 
s 8
f 82/159/1 80/156/1 76/160/1 
s 4
f 86/181/96 87/182/97 88/183/98 
s 2
f 89/184/99 90/185/100 91/186/99 
s 16
f 92/187/101 93/188/102 94/189/103 
s 32
f 92/190/104 94/191/105 95/192/106 
s 8
f 96/193/1 97/194/1 88/195/1 
f 98/196/1 97/194/1 99/197/1 
f 93/198/1 97/194/1 94/199/1 
f 94/199/1 97/194/1 95/200/1 
s 32
f 87/201/107 95/202/106 100/203/108 
s 8
f 95/200/1 97/194/1 100/204/1 
s 32
f 101/205/109 92/206/104 87/207/107 
s 16
f 89/208/110 91/209/111 92/210/101 
f 102/211/110 89/208/110 92/210/101 
s 2
f 102/212/99 90/185/100 89/184/99 
s 32
f 87/201/107 92/213/104 95/202/106 
s 4
f 87/214/97 96/215/112 88/216/98 
f 87/217/97 100/218/113 96/219/112 
s 8
f 100/204/1 97/194/1 96/193/1 
s 16
f 101/220/110 102/211/110 92/210/101 
s 2
f 86/221/99 90/185/100 102/212/99 
f 101/222/99 86/221/99 102/212/99 
s 4
f 101/223/96 87/182/97 86/181/96 
s 2
f 86/221/99 88/224/114 90/185/100 
f 90/225/100 98/226/115 99/227/116 
f 90/228/100 88/229/114 98/230/115 
s 8
f 88/195/1 97/194/1 98/196/1 
s 2
f 91/186/99 90/185/100 99/231/116 
s 16
f 91/209/111 93/232/102 92/210/101 
f 91/233/111 99/234/117 93/235/102 
s 8
f 99/197/1 97/194/1 93/198/1 
# 188 faces

